<?xml version="1.0" encoding="UTF-8" standalone="no"?>
<!DOCTYPE svg PUBLIC "-//W3C//DTD SVG 1.1//EN" "http://www.w3.org/Graphics/SVG/1.1/DTD/svg11.dtd">
<svg width="100%" height="100%" viewBox="0 0 1230 878" version="1.1" xmlns="http://www.w3.org/2000/svg" xmlns:xlink="http://www.w3.org/1999/xlink" xml:space="preserve" xmlns:serif="http://www.serif.com/" style="fill-rule:evenodd;clip-rule:evenodd;stroke-linejoin:round;stroke-miterlimit:2;">
    <g transform="matrix(0.1,0,0,-0.1,-36.8238,877.744)">
        <path d="M5090,8762C5066,8742 5065,8742 5084,8721C5103,8700 5103,8700 5068,8700C5007,8700 4991,8651 5045,8630C5077,8618 5079,8590 5048,8597C5035,8600 5021,8606 5015,8610C5010,8613 4968,8615 4923,8614C4853,8612 4837,8609 4808,8587C4779,8565 4773,8563 4756,8575C4730,8594 4713,8632 4714,8666C4715,8691 4719,8695 4747,8698C4782,8702 4803,8720 4792,8738C4787,8745 4774,8747 4755,8742C4733,8736 4722,8738 4708,8752C4687,8773 4633,8769 4593,8744C4581,8736 4562,8730 4551,8730C4540,8730 4529,8726 4526,8721C4517,8707 4561,8658 4577,8664C4586,8668 4590,8665 4587,8658C4583,8646 4570,8644 4526,8652C4516,8654 4495,8667 4479,8681C4453,8705 4444,8707 4393,8703C4361,8701 4327,8699 4318,8699C4308,8699 4298,8695 4295,8691C4293,8686 4263,8685 4231,8687L4171,8692L4168,8645C4164,8588 4143,8567 4108,8589C4089,8601 4085,8600 4075,8586C4068,8577 4058,8570 4051,8570C4032,8570 4039,8585 4063,8595C4075,8601 4083,8612 4081,8620C4079,8628 4078,8644 4078,8654C4080,8691 4061,8713 4032,8705C4017,8702 3939,8695 3857,8691C3776,8686 3704,8678 3697,8673C3691,8667 3663,8657 3635,8650C3608,8643 3580,8633 3574,8628C3568,8624 3517,8615 3461,8610C3405,8605 3352,8596 3342,8591C3332,8586 3318,8585 3310,8590C3302,8594 3282,8596 3267,8593L3238,8587L3284,8544C3333,8497 3350,8490 3350,8518C3350,8531 3356,8529 3379,8505C3395,8488 3404,8471 3399,8466C3395,8461 3395,8449 3401,8438C3409,8422 3407,8420 3378,8419C3360,8418 3328,8416 3308,8414C3279,8412 3270,8415 3270,8426C3270,8434 3275,8438 3280,8435C3286,8432 3293,8437 3297,8446C3301,8458 3296,8468 3282,8478C3270,8486 3260,8502 3260,8514C3260,8555 3214,8588 3181,8571C3171,8565 3161,8563 3159,8565C3156,8567 3035,8572 2890,8575C2744,8578 2614,8585 2600,8590C2561,8603 2491,8609 2484,8599C2481,8594 2489,8589 2502,8589C2522,8588 2523,8587 2505,8583C2494,8580 2478,8572 2469,8564C2460,8556 2450,8554 2444,8559C2439,8564 2426,8570 2415,8573C2402,8576 2406,8578 2428,8579C2449,8580 2460,8585 2460,8595C2460,8607 2445,8610 2389,8610C2347,8610 2321,8606 2325,8600C2338,8579 2316,8538 2275,8511C2238,8486 2223,8482 2176,8484C2120,8487 2074,8512 2086,8532C2093,8543 2070,8571 2059,8565C2055,8562 2041,8578 2028,8600L2005,8640L1928,8637C1886,8636 1854,8632 1856,8628C1859,8624 1849,8618 1834,8614C1817,8610 1805,8612 1799,8621C1795,8628 1788,8631 1783,8627C1779,8623 1781,8610 1788,8600C1804,8574 1803,8572 1779,8568C1745,8563 1732,8535 1754,8511C1771,8493 1771,8492 1751,8485C1713,8473 1666,8483 1637,8509C1617,8528 1610,8530 1610,8518C1610,8484 1523,8411 1500,8425C1496,8428 1487,8423 1480,8415C1473,8407 1464,8403 1459,8406C1454,8409 1434,8399 1414,8383L1377,8355L1361,8379C1352,8393 1345,8410 1345,8419C1345,8427 1334,8437 1320,8440C1301,8445 1296,8452 1298,8468C1302,8497 1291,8496 1231,8461C1204,8445 1169,8430 1153,8428C1128,8425 1125,8421 1125,8391C1125,8349 1150,8329 1180,8348C1191,8355 1200,8356 1200,8351C1200,8334 1174,8322 1119,8316C1072,8310 1057,8312 1026,8330C1006,8342 990,8356 990,8362C990,8367 975,8370 957,8368C940,8366 925,8360 925,8353C925,8347 922,8339 918,8335C914,8331 914,8321 917,8313C921,8302 917,8299 904,8302C892,8304 884,8315 882,8332C880,8346 872,8361 863,8364C853,8368 849,8366 853,8356C858,8344 852,8342 826,8344C808,8346 787,8351 780,8355C772,8360 762,8356 754,8346C742,8329 741,8330 731,8349C724,8360 723,8382 726,8396C731,8416 728,8427 715,8436C704,8444 697,8461 698,8480C698,8499 694,8510 685,8510C676,8510 673,8502 676,8485C678,8471 676,8460 671,8460C666,8460 660,8470 658,8482C654,8514 630,8515 586,8485C559,8467 542,8461 527,8467C469,8486 462,8476 490,8413C501,8387 510,8350 508,8328C507,8300 512,8284 530,8265C543,8251 550,8240 546,8240C542,8240 528,8252 515,8268L491,8295L490,8258C490,8229 486,8220 473,8220C433,8219 398,8134 425,8106C434,8097 439,8084 437,8077C433,8068 431,8068 431,8078C429,8103 410,8089 410,8062C410,8046 403,8010 394,7980C382,7941 381,7921 389,7904C395,7889 396,7870 389,7848C373,7792 378,7746 400,7732C422,7718 417,7695 394,7704C372,7712 365,7663 379,7600C395,7529 419,7338 420,7278C420,7252 425,7228 430,7225C436,7222 440,7214 440,7209C440,7203 436,7201 431,7204C426,7207 420,7179 417,7142C412,7078 405,7023 395,6970C378,6882 378,6878 399,6885C415,6890 419,6886 422,6858C425,6826 427,6825 473,6822C526,6819 529,6814 500,6778C483,6755 475,6753 435,6758L389,6763L395,6699C399,6664 407,6617 412,6595C418,6573 423,6533 424,6505C425,6478 429,6449 433,6443C438,6435 463,6430 496,6430C544,6430 552,6433 562,6455C568,6469 581,6480 590,6480C599,6480 611,6485 618,6492C627,6501 630,6499 630,6483C630,6471 627,6455 624,6446C619,6432 616,6432 603,6445C588,6460 565,6456 575,6440C578,6436 572,6412 563,6387C546,6341 533,6340 517,6383C513,6393 505,6400 498,6399C491,6398 477,6400 468,6404C431,6421 415,6407 417,6360L420,6315L380,6385L386,6343C390,6315 388,6295 380,6285C365,6267 364,6202 379,6187C385,6181 390,6169 390,6160C390,6136 425,6107 447,6114C457,6117 470,6130 475,6142C481,6156 492,6164 503,6162C513,6160 527,6166 535,6174C554,6193 555,6221 536,6214C513,6205 508,6227 525,6260C534,6277 539,6294 536,6298C533,6302 535,6312 541,6320C547,6331 550,6323 550,6295C550,6273 558,6242 568,6225C584,6200 586,6175 585,6065C584,5975 579,5927 569,5910L555,5885L552,5908C548,5933 532,5936 506,5917C482,5899 489,5866 518,5862C537,5859 539,5856 529,5844C523,5836 520,5827 523,5823C527,5820 523,5812 514,5806C500,5796 501,5792 519,5776C537,5759 543,5758 564,5770C594,5786 620,5777 620,5752C620,5741 630,5720 641,5705C659,5683 661,5676 649,5669C641,5664 632,5660 628,5660C623,5660 614,5645 606,5628C592,5596 592,5596 591,5621C590,5636 597,5653 605,5660C621,5673 626,5700 613,5700C608,5700 596,5693 586,5685C558,5664 515,5666 499,5690C490,5702 470,5712 447,5715C406,5720 406,5719 443,5666C460,5642 464,5620 464,5543L465,5449L505,5414C527,5395 554,5375 565,5369C580,5362 575,5361 545,5366C523,5369 498,5378 489,5386C463,5409 458,5402 464,5358C473,5300 474,5270 470,5171C467,5091 468,5086 489,5078C508,5072 513,5074 517,5091C521,5103 528,5109 537,5106C544,5103 553,5107 556,5115C560,5123 569,5130 577,5130C589,5130 591,5123 585,5098C580,5080 576,5040 576,5010C575,4980 571,4949 567,4942C557,4927 526,4926 500,4940C467,4958 468,4933 502,4906C521,4892 529,4880 520,4880C509,4880 509,4877 518,4868C542,4844 530,4837 505,4860C473,4891 464,4880 482,4833C491,4811 495,4777 492,4752C488,4713 490,4708 511,4703C532,4697 532,4696 515,4690C499,4684 496,4675 499,4629C500,4599 506,4572 512,4569C525,4560 534,4450 522,4450C508,4450 498,4359 511,4344C518,4336 518,4325 512,4313C503,4295 496,4222 498,4160C501,4073 505,4055 523,4052C547,4047 570,4067 570,4092C570,4111 571,4111 588,4090C603,4071 612,4069 639,4075C659,4079 674,4090 677,4101C684,4125 685,4125 710,4100C721,4089 736,4080 744,4080C756,4080 762,4064 774,3992C776,3979 782,3964 789,3957C795,3951 800,3939 800,3929C800,3920 809,3901 821,3886C832,3871 840,3853 837,3846C834,3838 838,3823 846,3812C858,3795 858,3787 848,3771C839,3756 839,3745 847,3727C860,3698 850,3677 827,3686C803,3695 780,3673 779,3641C778,3624 776,3621 773,3633C768,3651 758,3655 747,3643C743,3640 746,3630 752,3622C770,3601 771,3550 754,3550C730,3550 728,3530 750,3495C763,3474 780,3460 792,3460C805,3460 810,3465 807,3473C804,3481 805,3493 810,3500C816,3510 824,3510 849,3499C892,3480 886,3455 837,3453C816,3453 788,3449 775,3446C756,3441 750,3444 750,3455C750,3479 719,3486 704,3465C688,3443 686,3394 700,3385C715,3376 712,3357 697,3363C671,3373 691,3320 721,3299C756,3275 756,3268 728,3230C702,3194 687,3191 696,3224C702,3251 678,3272 628,3284C607,3289 598,3286 590,3271C572,3237 579,3206 611,3170L643,3136L611,3127C592,3123 581,3114 583,3107C586,3100 591,3096 596,3097C601,3098 606,3084 607,3067C609,3044 603,3030 587,3018L565,3000L590,2980C615,2960 608,2952 580,2970C569,2977 558,2972 539,2954C515,2932 513,2922 516,2877C518,2849 525,2821 532,2815C539,2810 551,2793 557,2778C570,2749 593,2749 604,2776C612,2796 593,2830 576,2830C556,2830 549,2857 567,2864C575,2867 586,2867 591,2864C606,2855 629,2880 623,2898C618,2910 624,2909 643,2891C657,2879 673,2871 679,2875C694,2884 693,2816 679,2775C669,2749 670,2737 685,2706C704,2666 708,2608 691,2602C666,2594 629,2556 634,2544C637,2537 635,2528 630,2525C624,2521 620,2511 620,2500C620,2490 613,2479 604,2476C591,2471 590,2467 600,2455C607,2447 616,2443 621,2446C636,2455 631,2438 613,2418C598,2401 598,2398 618,2377C646,2347 647,2320 619,2320C586,2320 539,2281 542,2257C547,2220 523,2228 516,2266C510,2298 506,2302 484,2297C471,2295 460,2297 460,2301C460,2306 456,2310 450,2310C436,2310 438,2261 454,2225C464,2202 464,2188 454,2160C441,2123 446,2018 461,1988C466,1979 470,1955 470,1936C470,1896 490,1880 542,1880C572,1879 573,1878 558,1866C535,1849 535,1835 561,1812C579,1795 579,1792 565,1786C556,1783 540,1785 530,1790C502,1805 500,1803 500,1765C500,1739 506,1726 525,1714C548,1699 550,1692 549,1633C547,1565 549,1566 492,1587C475,1594 477,1560 496,1515C504,1495 509,1476 506,1473C504,1470 506,1456 512,1441C517,1427 524,1359 527,1290C530,1221 536,1160 541,1154C546,1147 545,1132 536,1114C528,1098 518,1058 515,1025C507,955 521,929 566,926C582,925 605,919 618,912C644,897 680,905 680,926C680,935 690,940 708,940C742,940 790,991 790,1026C790,1055 803,1057 830,1030C844,1016 848,1002 844,986C841,971 849,944 870,905C887,874 900,847 898,845C896,844 878,845 856,848C833,851 823,855 830,860C839,866 837,873 821,889C799,911 770,917 770,900C770,895 761,890 750,890C720,890 723,836 755,804L781,778L750,785C722,791 719,789 709,761C697,726 674,710 638,710C610,710 569,683 572,667C575,651 536,577 516,561C495,543 496,503 518,491C539,480 570,494 570,516C570,527 577,525 600,508C617,496 628,480 626,474C623,467 627,457 634,451C649,438 685,460 685,482C685,489 696,497 710,498C724,500 743,509 753,518C769,532 771,532 784,515C796,499 800,498 814,509C828,521 830,520 830,501C830,490 839,475 849,468C864,459 866,453 857,439C849,426 851,414 863,389C877,360 877,355 865,352C857,350 850,339 850,327C850,310 847,308 841,319C832,333 810,326 810,309C810,291 854,261 871,266C882,269 889,263 893,251C896,237 910,230 944,225C996,217 1025,231 1017,262C1014,272 1016,280 1020,280C1025,280 1032,296 1036,315C1039,334 1048,350 1055,350C1073,350 1083,385 1072,407C1058,434 1050,500 1061,500C1066,500 1070,511 1070,524C1070,538 1080,554 1094,563C1129,587 1133,634 1103,699C1090,728 1081,755 1084,758C1087,760 1122,746 1163,726C1203,706 1242,690 1250,690C1270,690 1335,647 1322,642C1302,636 1309,611 1335,594C1363,576 1390,581 1390,605C1390,616 1396,620 1408,616C1417,614 1441,609 1460,605C1479,602 1505,594 1517,588C1533,580 1552,581 1585,589C1630,600 1633,600 1666,570C1699,541 1715,536 1752,539C1764,540 1770,530 1775,500C1780,470 1786,460 1801,460C1811,460 1820,455 1820,449C1820,444 1815,442 1808,446C1800,451 1799,448 1803,436C1808,422 1806,419 1795,424C1771,433 1777,399 1805,367C1840,327 1873,317 1984,314L2082,310L2076,348C2073,368 2067,421 2064,465L2058,545L2121,540C2164,537 2185,531 2184,523C2183,516 2182,498 2181,483L2178,455L2171,480C2161,516 2131,512 2109,472C2095,445 2094,432 2102,409C2109,389 2117,381 2127,384C2135,387 2144,390 2146,390C2149,390 2155,402 2160,416C2166,430 2175,438 2181,435C2187,431 2189,421 2186,413C2180,397 2205,340 2219,340C2232,340 2260,375 2260,392C2260,401 2267,413 2275,420C2298,439 2293,459 2260,478C2244,487 2230,498 2230,503C2230,515 2242,511 2276,485C2294,471 2319,459 2332,458C2351,455 2354,459 2352,477C2350,495 2353,498 2365,494C2377,489 2379,480 2375,459C2370,438 2373,429 2388,421C2409,410 2422,418 2432,450C2436,461 2441,456 2449,436L2460,408L2482,435C2500,458 2502,467 2493,491C2483,516 2484,522 2502,531C2517,539 2527,538 2543,526C2665,437 2677,424 2638,418C2617,415 2615,411 2618,365C2622,307 2638,290 2688,290C2719,290 2722,292 2715,313C2702,354 2698,390 2706,390C2710,390 2722,382 2732,373C2746,360 2753,359 2762,368C2781,387 2798,382 2802,358C2804,346 2811,334 2819,332C2830,328 2832,334 2827,359C2823,376 2825,390 2830,390C2835,390 2840,378 2842,364C2845,333 2870,314 2894,323C2907,328 2908,334 2898,355C2892,369 2889,382 2891,385C2898,392 2973,368 2991,353C2999,346 3014,340 3024,340C3037,340 3040,345 3034,362C3028,382 3029,383 3043,371C3052,364 3058,354 3055,350C3045,333 3096,292 3138,282C3197,268 3240,283 3240,316C3240,346 3248,346 3294,315C3314,301 3341,288 3355,284C3370,280 3377,273 3373,264C3367,248 3324,245 3315,260C3299,286 3230,256 3230,223C3230,204 3271,160 3288,160C3298,160 3311,151 3318,140C3336,111 3354,115 3346,145C3342,159 3344,170 3350,170C3355,170 3360,165 3360,159C3360,152 3371,150 3390,153C3427,161 3437,146 3408,125C3385,109 3385,109 3405,94C3427,78 3447,81 3442,100C3440,107 3444,116 3449,120C3455,123 3462,154 3465,188C3469,241 3467,252 3449,268C3433,284 3432,289 3443,298C3454,307 3462,304 3479,286C3492,272 3508,264 3516,267C3538,275 3553,260 3539,244C3533,236 3530,227 3533,223C3537,220 3535,211 3530,205C3517,189 3528,160 3546,160C3554,160 3560,154 3560,147C3560,140 3573,126 3590,117C3619,100 3619,100 3613,117C3610,127 3603,141 3597,148C3591,156 3591,160 3599,160C3607,160 3608,165 3601,179C3592,194 3594,196 3613,193C3631,189 3639,177 3649,142C3655,116 3670,76 3681,54C3701,14 3703,12 3762,6C3805,1 3825,2 3830,11C3834,17 3842,20 3847,17C3859,9 3900,37 3900,53C3900,60 3885,72 3868,79C3843,89 3839,94 3853,97C3862,99 3870,108 3870,117C3870,130 3878,131 3918,125C3944,121 3971,115 3979,110C3986,106 4005,109 4020,117C4050,131 4237,130 4272,115C4284,110 4292,113 4296,125C4300,134 4309,139 4317,136C4324,133 4359,142 4394,157C4430,171 4464,180 4472,176C4479,172 4496,163 4510,155C4524,147 4560,140 4590,140C4638,140 4647,137 4655,118C4661,105 4674,93 4685,91C4696,89 4709,82 4713,74C4717,66 4726,60 4731,60C4737,60 4738,65 4735,70C4726,85 4755,111 4767,99C4772,94 4794,81 4816,70C4851,52 4856,51 4866,65C4875,78 4885,79 4912,72C4956,61 5010,77 5010,102C5010,125 5013,125 5058,95C5088,76 5103,72 5138,77C5168,81 5180,87 5180,100C5180,109 5191,127 5205,140C5224,158 5227,166 5219,177C5210,187 5211,190 5223,190C5248,190 5296,168 5283,163C5276,160 5270,150 5270,139C5270,129 5264,120 5256,120C5232,120 5219,95 5233,78C5241,67 5271,61 5328,57C5403,51 5428,58 5400,75C5387,83 5387,100 5401,100C5407,100 5424,91 5440,80C5455,69 5470,63 5473,67C5477,70 5499,75 5522,77C5546,80 5575,88 5588,96C5600,104 5615,108 5621,105C5636,95 5660,120 5660,145C5660,170 5611,239 5593,240C5586,240 5580,246 5580,254C5580,271 5558,280 5519,280C5488,280 5478,299 5508,302C5575,308 5583,306 5610,279C5647,242 5687,240 5700,275C5705,289 5714,300 5719,300C5732,300 5739,263 5728,252C5710,234 5729,204 5769,184C5801,169 5806,163 5797,149C5775,114 5819,91 5877,106C5897,112 5898,117 5893,164C5890,192 5883,224 5877,235C5868,253 5868,254 5883,241C5893,234 5900,220 5900,211C5900,192 5940,150 5958,150C5964,150 5975,159 5983,171C5991,182 6008,192 6021,192C6052,194 6070,208 6070,231C6070,257 6051,264 6031,246C6012,229 5999,225 6002,238C6003,242 5999,255 5992,268C5983,284 5970,290 5945,290C5915,290 5910,293 5910,313C5910,326 5898,347 5884,359L5857,382L5886,410C5913,435 5915,435 5918,418C5920,407 5928,396 5935,393C5946,389 5947,384 5938,370C5929,356 5929,348 5940,336C5952,321 5954,322 5969,342C5978,355 5984,368 5982,373C5979,384 6008,381 6030,368C6046,358 6054,358 6070,368C6097,384 6105,383 6090,364C6079,352 6079,346 6092,333C6115,311 6133,325 6119,353C6107,374 6108,374 6127,357C6156,332 6163,336 6156,373C6151,402 6152,403 6164,387C6183,362 6224,381 6215,411C6210,425 6212,428 6224,424C6250,414 6228,463 6202,475C6173,488 6174,502 6204,516C6224,525 6230,525 6234,513C6242,493 6266,503 6262,524C6260,535 6266,540 6281,540C6299,540 6300,538 6290,525C6283,517 6280,503 6284,495C6287,487 6285,480 6279,480C6273,480 6270,468 6272,453C6274,436 6281,425 6291,425C6299,425 6318,417 6333,407C6363,387 6410,384 6410,402C6410,409 6417,404 6426,392C6449,358 6524,361 6562,397C6586,420 6593,422 6615,412C6668,388 6727,403 6701,434C6687,451 6712,464 6728,448C6746,430 6762,450 6755,481C6749,506 6751,510 6770,510C6784,510 6791,516 6789,527C6786,564 6791,578 6809,583C6822,586 6831,580 6839,564C6847,545 6857,540 6884,540C6908,540 6920,545 6922,557C6924,568 6936,573 6958,574C6993,575 6996,570 6978,541C6969,526 6969,515 6979,493L6991,465L6965,491C6939,517 6937,517 6899,502C6856,486 6849,463 6878,437C6890,426 6911,422 6955,425C7007,427 7015,430 7012,446C7009,462 7010,462 7025,450C7040,438 7044,438 7056,455C7064,465 7073,471 7076,467C7080,464 7094,467 7109,474C7133,487 7138,486 7165,464C7199,437 7221,435 7286,451C7329,462 7340,473 7320,485C7315,488 7310,487 7310,481C7310,475 7297,478 7281,487C7258,501 7252,511 7252,542C7251,579 7252,580 7285,580C7304,580 7321,576 7325,570C7335,553 7360,571 7360,596C7360,612 7354,620 7343,621C7333,622 7321,623 7315,625C7310,626 7293,628 7278,628C7263,629 7236,644 7218,660L7185,690L7285,690C7410,689 7440,691 7440,700C7440,703 7474,714 7515,724C7577,739 7596,740 7627,729C7647,723 7677,717 7693,718C7720,719 7721,718 7706,701C7697,691 7690,674 7690,663C7690,636 7728,589 7749,591C7789,595 7804,590 7792,578C7773,559 7778,550 7810,550C7846,550 7859,572 7853,620C7849,649 7850,653 7861,643C7881,623 7912,627 7908,648C7906,657 7898,664 7892,662C7885,661 7880,664 7880,670C7880,675 7887,680 7895,680C7912,680 7915,703 7900,731C7888,753 7902,756 7945,740C7965,733 7970,725 7965,711C7959,691 7981,680 8033,680C8057,680 8064,686 8077,720C8088,746 8099,760 8111,760C8121,760 8160,771 8197,785C8269,811 8282,811 8256,785C8237,766 8235,739 8252,722C8261,713 8261,710 8252,710C8234,710 8238,685 8259,666C8294,634 8385,649 8352,682C8344,690 8349,698 8375,711C8394,721 8416,727 8425,724C8435,720 8440,724 8440,734C8440,744 8431,750 8416,750C8398,750 8391,756 8388,772C8386,785 8377,796 8365,799C8330,805 8317,840 8349,840C8360,840 8372,844 8375,850C8378,855 8398,860 8418,860C8438,861 8473,867 8495,875C8517,883 8541,890 8548,890C8566,890 8563,849 8543,835C8534,828 8530,818 8534,812C8543,797 8580,796 8580,811C8580,817 8589,819 8600,815C8614,811 8620,813 8620,823C8620,848 8668,853 8702,832L8731,813L8705,796C8691,787 8682,775 8686,769C8689,763 8693,747 8695,732C8696,718 8708,697 8721,687C8742,670 8745,669 8748,684C8750,693 8756,698 8761,694C8766,691 8768,685 8765,680C8762,676 8767,667 8775,660C8787,650 8790,650 8790,662C8790,670 8785,681 8778,688C8769,697 8769,703 8777,711C8785,719 8795,711 8814,681C8844,635 8929,584 8938,608C8941,618 8945,618 8956,609C8982,588 9000,606 9000,653L9000,697L9035,693C9059,691 9075,695 9087,707C9106,726 9146,730 9169,716C9187,705 9165,690 9129,690C9098,690 9077,669 9086,646C9089,637 9087,623 9080,615C9070,602 9070,596 9084,582C9093,572 9100,556 9100,548C9100,523 9122,512 9180,508L9235,505L9238,538C9240,555 9245,570 9251,570C9267,570 9260,590 9235,616C9208,643 9210,660 9240,660C9250,660 9272,668 9289,677C9329,700 9337,689 9309,651L9286,620L9309,597C9330,576 9332,576 9344,593C9357,609 9358,609 9363,590C9367,576 9373,572 9387,576C9402,582 9403,580 9393,569C9386,562 9380,550 9380,543C9380,536 9371,521 9359,509C9344,494 9340,481 9345,460C9350,438 9347,429 9331,421C9318,414 9309,413 9305,420C9290,444 9207,470 9175,460C9170,459 9146,465 9123,475C9088,490 9081,498 9078,523C9074,561 9053,570 9041,538C9030,512 9027,520 9030,572C9031,593 9027,610 9022,610C9004,610 8959,557 8969,547C8975,541 8973,532 8963,522C8951,509 8947,509 8940,521C8933,532 8930,531 8924,517C8921,508 8920,494 8923,486C8926,478 8924,469 8917,467C8899,461 8929,410 8957,397C8975,389 8984,391 8999,404C9018,421 9020,421 9054,395C9073,381 9090,364 9092,360C9094,355 9120,351 9150,351C9251,351 9285,349 9303,344C9314,340 9320,344 9320,354C9320,372 9375,377 9385,360C9388,354 9406,350 9423,350C9460,350 9490,384 9471,403C9452,422 9459,427 9498,426C9532,425 9537,429 9556,465C9567,487 9582,516 9590,530L9604,555L9610,525C9614,500 9621,494 9650,489C9669,486 9694,479 9704,475C9719,468 9722,470 9717,483C9712,496 9717,498 9747,493L9782,487L9775,541C9766,606 9747,632 9714,624C9691,618 9691,619 9701,649C9715,687 9736,704 9727,669C9719,639 9756,608 9771,631C9777,641 9781,641 9794,631C9817,612 9860,641 9860,676L9860,702L9878,680C9901,651 9942,661 9957,698L9968,725L9969,698C9970,680 9980,663 10000,648C10017,636 10030,620 10030,613C10030,604 10023,606 10008,620C9978,648 9959,642 9945,600C9937,575 9926,564 9909,562C9874,557 9860,541 9860,509C9860,474 9886,469 9900,503C9908,524 9909,524 9909,504C9910,493 9905,479 9900,474C9882,456 9916,434 9935,450C9943,457 9950,469 9950,476C9950,488 9954,488 9973,478C9985,471 9996,464 9998,463C10000,462 9992,452 9980,440C9964,424 9961,415 9970,405C9993,378 10154,446 10165,488C10169,505 10176,510 10187,506C10242,484 10242,613 10187,659C10177,667 10170,687 10170,707C10170,740 10172,742 10198,737C10215,733 10242,739 10275,755C10303,768 10344,786 10368,796C10391,805 10410,817 10410,822C10410,836 10462,831 10480,815C10489,807 10515,799 10538,798C10560,797 10578,792 10577,787C10576,782 10584,776 10594,774C10643,766 10661,758 10709,720C10737,698 10762,680 10766,680C10786,680 10839,646 10843,630C10846,619 10860,605 10875,598C10900,587 10904,588 10926,613C10946,637 10951,639 10956,625C10960,616 10960,606 10956,603C10953,600 10956,590 10963,582C10973,569 10972,567 10958,573C10936,581 10919,559 10927,532C10932,512 11018,450 11041,450C11047,450 11049,441 11045,431C11042,420 11046,406 11054,397C11068,384 11068,381 11055,370C11037,355 11035,327 11053,332C11059,335 11069,346 11075,358C11080,370 11088,380 11092,380C11097,380 11100,387 11100,395C11100,403 11106,410 11114,410C11122,410 11130,417 11134,425C11137,433 11146,440 11155,440C11167,440 11169,444 11160,459C11142,494 11149,491 11186,450C11214,419 11226,412 11236,420C11245,428 11257,427 11279,415C11309,400 11310,400 11316,424C11319,438 11318,455 11314,462C11309,469 11307,483 11308,492C11310,502 11299,517 11283,527C11268,537 11254,555 11253,568C11250,589 11253,590 11288,584C11336,575 11340,573 11340,550C11340,525 11409,450 11431,450C11452,450 11465,466 11450,475C11431,487 11440,510 11464,510C11477,510 11490,514 11492,520C11495,529 11546,523 11618,506C11638,502 11709,499 11774,501C11785,501 11802,505 11812,511C11839,526 11897,512 11903,489C11906,479 11920,466 11934,460C11949,455 11964,440 11969,427C11987,382 12010,383 12087,436C12132,467 12150,467 12121,437C12103,417 12102,411 12113,402C12133,385 12201,406 12207,431C12213,454 12230,446 12230,419C12230,396 12255,393 12264,415C12267,424 12295,442 12325,455C12365,473 12380,485 12380,499C12380,510 12375,522 12369,525C12363,530 12365,536 12376,544C12392,556 12391,558 12370,573C12342,593 12344,595 12393,603C12431,609 12431,609 12425,579C12417,545 12435,539 12446,572C12449,584 12465,611 12481,633C12519,685 12533,736 12517,761C12508,776 12508,784 12518,800C12524,811 12530,829 12530,840C12530,853 12537,860 12550,860C12566,860 12570,867 12570,894C12570,913 12573,935 12576,943C12584,964 12540,977 12526,958C12520,950 12510,945 12503,947C12497,949 12489,946 12485,941C12481,933 12473,933 12458,941C12438,952 12438,952 12463,978C12476,993 12490,1013 12494,1024C12499,1037 12506,1041 12523,1035C12562,1024 12572,1025 12584,1043C12592,1056 12592,1066 12580,1088C12565,1113 12566,1119 12589,1175C12602,1208 12613,1245 12612,1257C12611,1269 12615,1282 12620,1285C12633,1293 12633,1346 12620,1371C12614,1381 12601,1390 12591,1390C12579,1390 12571,1399 12568,1415C12565,1429 12567,1440 12571,1440C12587,1440 12580,1487 12560,1513C12540,1538 12540,1538 12560,1543C12601,1554 12605,1626 12566,1652C12550,1663 12502,1662 12495,1650C12484,1633 12470,1650 12470,1680C12470,1695 12476,1710 12483,1713C12492,1716 12490,1722 12478,1737C12456,1761 12455,1781 12475,1774C12486,1769 12488,1772 12484,1784C12480,1794 12471,1799 12462,1795C12450,1791 12449,1792 12460,1805C12469,1816 12471,1843 12467,1900C12464,1944 12458,1984 12455,1989C12452,1994 12463,2013 12480,2031C12496,2050 12510,2073 12510,2083C12510,2114 12480,2162 12464,2156C12438,2146 12449,2188 12482,2220C12510,2248 12512,2254 12501,2272C12489,2291 12490,2292 12516,2287C12554,2280 12566,2286 12591,2326C12612,2361 12609,2385 12584,2376C12573,2372 12574,2376 12586,2395C12608,2428 12589,2454 12548,2448C12533,2445 12520,2447 12520,2452C12520,2456 12513,2460 12505,2460C12487,2460 12487,2469 12504,2541C12512,2572 12516,2608 12513,2621C12511,2634 12514,2659 12520,2675L12532,2705L12541,2681C12548,2664 12556,2659 12570,2663C12582,2666 12590,2663 12590,2655C12590,2642 12611,2630 12634,2630C12651,2630 12671,2675 12664,2695C12659,2706 12649,2709 12626,2706C12597,2701 12594,2703 12595,2728C12595,2748 12590,2755 12578,2754C12568,2753 12560,2757 12560,2763C12560,2769 12557,2770 12554,2767C12550,2763 12553,2754 12560,2745C12575,2727 12561,2726 12538,2744C12517,2759 12502,2859 12507,2935C12510,2963 12506,3005 12500,3030C12494,3055 12483,3113 12475,3160C12468,3207 12459,3252 12456,3260C12453,3268 12446,3323 12440,3383C12435,3442 12426,3499 12421,3509C12415,3519 12409,3539 12406,3555C12403,3570 12394,3590 12386,3599C12378,3608 12367,3627 12361,3642L12351,3669L12383,3650C12442,3614 12472,3630 12427,3673C12372,3725 12394,3786 12454,3749C12495,3724 12520,3725 12520,3750C12520,3773 12480,3793 12455,3784C12447,3780 12440,3782 12440,3788C12440,3794 12445,3800 12452,3802C12459,3805 12452,3822 12431,3847C12408,3875 12400,3894 12404,3908C12413,3934 12401,3962 12384,3956C12374,3952 12371,3965 12371,4010C12371,4042 12367,4077 12361,4088C12346,4116 12347,4167 12363,4173C12373,4177 12373,4180 12363,4191C12345,4209 12347,4221 12366,4213C12378,4209 12381,4212 12378,4226C12376,4236 12368,4244 12362,4242C12348,4240 12347,4250 12360,4270C12367,4281 12371,4278 12380,4255L12392,4225L12411,4249C12433,4275 12433,4279 12421,4299C12413,4312 12409,4312 12394,4299C12379,4286 12378,4287 12384,4308C12389,4322 12387,4337 12380,4345C12373,4354 12372,4360 12378,4360C12383,4360 12395,4349 12404,4335C12420,4310 12460,4300 12460,4320C12460,4326 12444,4346 12425,4365C12398,4393 12384,4400 12358,4398L12325,4395L12317,4474C12310,4535 12311,4555 12321,4561C12329,4565 12338,4562 12345,4553C12362,4531 12383,4545 12370,4570C12357,4594 12357,4607 12370,4594C12378,4586 12393,4586 12421,4594C12458,4603 12460,4607 12454,4630C12450,4644 12445,4673 12444,4696C12443,4718 12433,4759 12422,4787C12403,4836 12403,4838 12421,4861C12441,4887 12445,4936 12430,4960C12422,4972 12420,4970 12420,4950C12419,4926 12419,4926 12408,4945C12392,4974 12392,4974 12378,4962C12368,4954 12365,4959 12367,4983C12368,5001 12369,5016 12369,5018C12370,5019 12378,5016 12388,5011C12409,5000 12435,5012 12450,5040C12458,5055 12454,5062 12425,5080C12401,5095 12381,5100 12364,5096C12347,5091 12341,5093 12345,5100C12353,5113 12291,5180 12272,5180C12265,5180 12248,5173 12235,5164C12220,5154 12210,5152 12210,5159C12210,5165 12215,5170 12221,5170C12227,5170 12240,5180 12249,5191C12265,5211 12270,5212 12303,5201C12323,5194 12344,5191 12348,5194C12353,5197 12365,5191 12375,5180C12400,5152 12430,5154 12430,5183C12431,5195 12437,5216 12444,5230C12454,5248 12455,5260 12448,5274C12442,5284 12441,5310 12444,5331C12451,5374 12435,5460 12412,5505C12404,5522 12394,5562 12391,5595C12387,5631 12380,5655 12373,5655C12354,5655 12348,5667 12355,5691C12361,5708 12364,5710 12371,5699C12386,5675 12386,5726 12372,5800C12366,5827 12358,5837 12335,5843C12283,5859 12276,5866 12268,5905C12257,5958 12223,6010 12199,6010C12188,6010 12167,6022 12152,6036C12128,6060 12127,6061 12148,6050C12179,6034 12204,6053 12189,6081C12182,6096 12168,6100 12130,6100C12102,6100 12080,6105 12080,6110C12080,6116 12085,6120 12090,6120C12106,6120 12102,6150 12085,6156C12061,6165 12066,6200 12091,6200C12106,6200 12110,6204 12106,6216C12103,6225 12100,6234 12100,6236C12100,6238 12093,6240 12085,6240C12077,6240 12070,6243 12070,6248C12069,6252 12068,6297 12066,6348L12063,6440L12097,6466C12121,6484 12130,6499 12130,6521C12130,6538 12136,6553 12145,6556C12153,6560 12160,6570 12160,6580C12160,6590 12167,6603 12175,6610C12195,6627 12205,6687 12191,6716C12182,6736 12183,6746 12195,6763C12208,6783 12208,6788 12195,6808C12181,6828 12182,6833 12220,6882C12242,6911 12261,6946 12262,6960C12262,6974 12264,6996 12264,7010C12267,7056 12279,7062 12305,7032C12326,7009 12331,7007 12340,7020C12349,7033 12353,7032 12368,7014C12391,6984 12447,6992 12460,7026C12471,7055 12462,7083 12444,7076C12437,7073 12428,7075 12425,7080C12421,7086 12427,7090 12437,7090C12456,7090 12480,7137 12480,7173C12480,7189 12477,7189 12451,7176C12424,7161 12423,7162 12428,7185C12431,7204 12427,7212 12409,7219C12396,7224 12389,7229 12394,7229C12408,7230 12359,7270 12344,7270C12320,7270 12300,7258 12299,7241C12299,7232 12290,7250 12279,7280C12267,7314 12263,7336 12270,7338C12275,7340 12280,7347 12280,7354C12280,7361 12292,7389 12306,7418C12328,7463 12330,7475 12322,7514C12315,7546 12316,7564 12326,7581C12333,7594 12339,7615 12340,7628C12341,7687 12387,7729 12418,7698C12435,7681 12442,7693 12431,7722C12424,7741 12426,7749 12441,7758C12451,7765 12467,7770 12476,7770C12491,7770 12491,7772 12474,7791C12455,7812 12455,7813 12476,7806C12494,7800 12501,7806 12519,7843C12537,7880 12540,7901 12537,7964C12535,8006 12536,8042 12538,8045C12546,8052 12551,8085 12555,8152C12559,8203 12557,8210 12538,8216C12525,8220 12514,8218 12512,8211C12510,8205 12504,8200 12498,8200C12492,8200 12494,8207 12501,8217C12512,8230 12512,8234 12503,8237C12496,8240 12490,8247 12490,8254C12490,8262 12481,8279 12470,8293C12444,8326 12445,8330 12480,8330C12504,8330 12513,8324 12521,8303L12531,8277L12550,8298C12566,8315 12570,8333 12570,8382C12569,8441 12568,8444 12554,8425C12543,8411 12536,8409 12533,8418C12527,8434 12491,8433 12457,8415C12436,8404 12428,8404 12426,8413C12424,8420 12418,8441 12411,8461C12405,8480 12400,8505 12400,8516C12401,8534 12401,8534 12411,8518C12427,8489 12448,8497 12476,8541C12499,8578 12505,8582 12536,8578C12573,8574 12581,8591 12557,8624C12541,8645 12473,8663 12467,8646C12464,8638 12459,8638 12449,8648C12428,8667 12403,8662 12381,8634C12354,8599 12355,8586 12385,8572C12399,8566 12410,8556 12410,8550C12410,8544 12403,8544 12391,8552C12376,8561 12360,8561 12316,8550C12285,8543 12260,8533 12260,8527C12260,8522 12249,8521 12236,8524C12221,8528 12210,8525 12207,8517C12204,8508 12198,8508 12181,8518C12150,8536 12123,8533 12106,8508C12081,8472 12014,8474 11968,8511C11948,8527 11927,8540 11922,8540C11916,8540 11909,8547 11906,8556C11898,8578 11898,8582 11910,8575C11930,8562 11919,8596 11894,8623C11878,8641 11861,8650 11850,8647C11840,8644 11818,8651 11801,8661C11762,8685 11760,8685 11759,8658C11758,8641 11757,8639 11753,8653C11748,8673 11731,8675 11696,8659C11675,8649 11664,8651 11626,8674C11602,8688 11574,8697 11566,8694C11555,8690 11550,8693 11550,8704C11550,8724 11511,8725 11484,8706C11471,8696 11461,8695 11453,8702C11437,8715 11388,8708 11383,8693C11380,8686 11393,8672 11410,8662C11439,8644 11440,8642 11419,8637C11404,8633 11399,8626 11402,8612C11407,8594 11404,8593 11374,8601C11336,8612 11250,8606 11221,8591C11210,8585 11190,8580 11175,8580C11161,8580 11147,8573 11144,8565C11141,8557 11128,8551 11117,8551C11105,8552 11077,8549 11054,8545C11017,8539 11012,8540 11007,8561C11000,8588 11016,8601 11046,8594C11058,8591 11076,8597 11090,8608C11112,8626 11113,8631 11102,8654C11092,8677 11087,8679 11069,8669C11049,8659 11048,8660 11055,8689C11060,8712 11058,8722 11046,8726C11020,8736 11000,8711 11000,8669C11000,8647 10997,8631 10993,8631C10970,8635 10960,8628 10960,8609C10960,8591 10958,8589 10944,8601C10931,8611 10927,8611 10920,8600C10915,8591 10915,8581 10921,8573C10935,8557 10873,8540 10800,8540C10738,8540 10670,8524 10670,8510C10670,8504 10659,8500 10645,8500C10631,8500 10620,8494 10620,8487C10620,8480 10609,8464 10596,8452C10576,8435 10569,8434 10560,8445C10545,8463 10505,8469 10483,8456C10473,8450 10452,8445 10435,8445C10408,8445 10404,8441 10395,8405C10390,8383 10382,8362 10376,8358C10365,8351 10338,8359 10328,8374C10324,8380 10316,8379 10306,8370C10297,8363 10286,8360 10282,8364C10278,8368 10285,8380 10298,8390C10332,8418 10325,8430 10275,8430C10242,8430 10230,8434 10230,8445C10230,8453 10236,8460 10243,8460C10256,8460 10329,8541 10348,8577C10362,8602 10355,8626 10333,8634C10317,8641 10300,8626 10281,8592L10269,8570L10237,8600C10208,8627 10199,8629 10145,8627C10099,8626 10085,8621 10085,8610C10085,8598 10095,8596 10131,8598C10166,8601 10180,8597 10190,8583C10202,8568 10202,8567 10190,8578C10157,8607 10099,8574 10114,8534C10118,8522 10116,8522 10099,8530C10077,8542 10050,8528 10050,8505C10050,8489 10018,8428 10005,8418C9984,8403 9989,8422 10024,8485C10055,8541 10058,8552 10044,8557C10035,8560 10024,8557 10020,8550C10013,8539 10008,8540 9995,8553C9976,8572 9948,8575 9920,8560C9907,8553 9890,8557 9854,8576C9827,8590 9801,8606 9795,8611C9790,8616 9782,8620 9778,8620C9764,8620 9821,8541 9838,8537C9854,8533 9854,8532 9838,8531C9829,8531 9807,8548 9790,8570C9755,8615 9744,8617 9676,8594C9638,8581 9631,8575 9641,8564C9650,8553 9649,8545 9635,8530C9624,8518 9620,8502 9624,8487C9631,8456 9621,8446 9603,8468C9594,8478 9592,8479 9596,8470C9603,8457 9601,8457 9588,8468C9574,8479 9566,8479 9542,8466C9526,8458 9505,8440 9496,8426C9487,8411 9476,8400 9471,8400C9462,8400 9449,8431 9445,8461C9441,8491 9405,8528 9376,8534C9342,8541 9331,8535 9348,8518C9366,8500 9363,8472 9343,8474C9333,8474 9325,8468 9325,8460C9325,8450 9335,8445 9353,8445C9368,8446 9380,8442 9380,8438C9380,8424 9319,8429 9284,8446C9245,8464 9220,8459 9220,8432C9220,8422 9209,8399 9195,8380C9181,8361 9172,8338 9175,8329C9181,8311 9156,8295 9139,8306C9125,8314 9080,8283 9080,8265C9080,8257 9075,8250 9068,8250C9062,8250 9046,8240 9033,8228C9010,8207 9010,8207 8988,8226C8976,8236 8970,8239 8974,8233C8978,8226 8977,8220 8972,8220C8966,8220 8960,8226 8957,8234C8953,8243 8939,8246 8910,8244C8887,8242 8861,8244 8851,8249C8842,8254 8823,8252 8805,8244C8789,8237 8780,8231 8785,8230C8791,8230 8787,8225 8778,8219C8768,8214 8760,8201 8760,8192C8760,8167 8716,8130 8688,8130C8674,8130 8655,8139 8644,8151C8628,8168 8628,8173 8640,8180C8648,8186 8658,8190 8663,8190C8667,8190 8670,8203 8670,8220C8670,8250 8640,8277 8620,8265C8614,8262 8610,8264 8610,8270C8610,8276 8599,8285 8585,8290C8571,8295 8560,8306 8560,8315C8560,8323 8549,8336 8535,8342C8521,8348 8510,8362 8510,8372C8510,8382 8499,8396 8485,8402C8471,8408 8460,8417 8460,8423C8460,8428 8476,8423 8496,8411C8541,8384 8550,8385 8550,8414C8550,8447 8527,8463 8490,8455C8472,8451 8460,8452 8460,8458C8460,8482 8385,8495 8185,8506C8016,8514 7970,8513 7953,8499C7945,8492 7935,8491 7928,8497C7903,8515 7840,8531 7758,8540C7655,8552 7658,8552 7665,8540C7668,8535 7664,8530 7655,8530C7629,8530 7627,8505 7650,8459C7666,8429 7674,8421 7680,8430C7687,8441 7692,8437 7701,8417C7708,8402 7721,8390 7730,8390C7743,8390 7746,8384 7743,8366C7740,8353 7743,8333 7749,8322C7758,8305 7770,8303 7845,8302C7914,8301 7930,8304 7930,8316C7930,8324 7935,8328 7940,8325C7946,8322 7950,8309 7950,8296C7950,8284 7955,8269 7961,8263C7968,8256 7963,8247 7943,8233C7886,8193 7852,8186 7834,8209C7827,8218 7807,8224 7790,8225C7765,8225 7756,8230 7754,8244C7749,8276 7730,8288 7723,8262C7719,8245 7714,8242 7705,8250C7695,8258 7689,8257 7682,8244C7673,8228 7672,8229 7666,8248C7662,8261 7650,8270 7639,8270C7629,8270 7620,8277 7620,8285C7620,8294 7612,8299 7598,8297C7581,8296 7575,8300 7575,8315C7575,8329 7581,8334 7593,8332C7603,8330 7614,8339 7622,8355C7638,8390 7625,8397 7587,8376L7555,8359L7583,8382C7598,8395 7610,8411 7610,8417C7610,8439 7587,8443 7573,8424C7562,8409 7556,8407 7540,8418C7515,8433 7488,8433 7471,8418C7460,8407 7458,8409 7464,8430C7467,8444 7470,8461 7470,8468C7470,8476 7477,8479 7488,8476C7497,8473 7513,8477 7524,8485C7551,8505 7533,8554 7497,8558C7475,8561 7471,8558 7477,8543C7483,8528 7481,8527 7468,8538C7457,8547 7450,8548 7445,8540C7442,8535 7422,8530 7402,8530C7375,8530 7361,8524 7352,8509C7344,8496 7333,8491 7321,8495C7293,8504 7267,8473 7275,8441C7279,8427 7286,8413 7291,8411C7297,8409 7292,8397 7280,8385C7261,8365 7254,8363 7231,8373C7201,8385 7176,8406 7201,8397C7225,8389 7236,8401 7243,8441C7248,8472 7245,8479 7224,8491C7206,8500 7197,8501 7189,8493C7183,8487 7170,8484 7161,8487C7152,8489 7159,8480 7175,8466C7196,8448 7200,8440 7189,8440C7180,8440 7165,8449 7155,8460C7143,8474 7133,8477 7125,8470C7119,8465 7094,8462 7070,8465C7040,8468 7013,8463 6983,8449C6944,8432 6941,8427 6950,8409C6964,8385 7005,8367 7044,8369C7072,8370 7072,8370 7057,8346C7042,8324 7042,8321 7059,8306C7084,8283 7127,8272 7194,8271C7237,8271 7250,8274 7250,8285C7250,8295 7260,8300 7280,8300C7297,8300 7313,8306 7316,8314C7319,8323 7329,8326 7338,8323C7353,8317 7353,8319 7337,8337C7313,8365 7324,8386 7363,8387C7381,8387 7405,8391 7418,8395C7434,8400 7440,8399 7440,8387C7440,8378 7445,8368 7452,8364C7460,8359 7461,8364 7457,8380L7451,8402L7472,8381C7483,8369 7498,8361 7506,8364C7513,8367 7522,8365 7525,8360C7533,8348 7495,8329 7467,8331C7455,8332 7425,8332 7401,8332C7363,8330 7358,8328 7363,8310C7366,8299 7365,8289 7362,8289C7358,8288 7346,8286 7335,8284C7285,8276 7276,8272 7258,8251C7248,8238 7240,8221 7240,8213C7240,8205 7236,8202 7230,8205C7218,8213 7164,8185 7152,8164C7144,8150 7137,8151 7080,8169C7045,8181 7000,8190 6979,8190C6958,8190 6938,8195 6935,8200C6932,8206 6914,8210 6895,8210C6876,8210 6858,8214 6855,8220C6852,8225 6816,8228 6770,8225C6698,8220 6692,8222 6697,8238C6699,8248 6692,8267 6681,8281C6662,8305 6661,8305 6630,8287C6600,8269 6571,8272 6599,8290C6607,8294 6610,8305 6606,8315C6601,8328 6597,8330 6586,8321C6576,8313 6571,8316 6562,8335C6547,8368 6527,8367 6482,8330C6436,8293 6386,8281 6377,8304C6373,8313 6361,8320 6350,8320C6338,8320 6332,8316 6335,8310C6338,8305 6325,8307 6306,8315C6286,8323 6248,8330 6221,8330C6178,8330 6167,8334 6141,8363C6124,8380 6110,8404 6110,8414C6110,8439 6063,8500 6045,8500C6028,8500 6008,8466 6018,8455C6022,8450 6020,8450 6013,8453C6006,8458 6004,8475 6007,8500C6017,8570 5953,8624 5909,8584C5898,8574 5890,8572 5890,8578C5890,8595 5865,8593 5849,8574C5839,8561 5839,8557 5851,8549C5862,8542 5861,8539 5843,8534C5830,8530 5820,8521 5820,8513C5820,8504 5814,8501 5802,8504C5792,8508 5764,8504 5741,8495C5687,8476 5651,8490 5658,8526C5660,8539 5669,8550 5677,8550C5688,8550 5690,8556 5685,8573C5681,8585 5678,8604 5679,8614C5679,8625 5671,8639 5662,8646C5640,8663 5550,8690 5517,8690C5487,8690 5471,8672 5491,8660C5501,8653 5501,8648 5492,8638C5483,8627 5483,8621 5492,8612C5514,8590 5457,8599 5431,8621C5410,8638 5409,8643 5421,8651C5428,8656 5441,8660 5448,8660C5472,8660 5461,8710 5435,8722C5413,8732 5407,8730 5389,8712C5362,8682 5345,8684 5319,8723C5307,8740 5295,8757 5293,8759C5292,8761 5284,8757 5276,8751C5264,8741 5254,8741 5228,8755C5173,8782 5119,8785 5090,8762ZM9715,8420C9723,8420 9730,8425 9732,8432C9735,8440 9744,8440 9766,8432C9782,8426 9790,8421 9783,8421C9775,8420 9776,8411 9787,8389C9797,8368 9799,8355 9792,8348C9778,8334 9761,8346 9766,8368C9768,8377 9766,8392 9760,8400C9745,8423 9732,8396 9737,8351C9740,8317 9740,8316 9725,8334C9717,8345 9710,8359 9710,8366C9710,8372 9703,8383 9695,8390C9686,8397 9681,8409 9684,8416C9687,8423 9685,8432 9680,8435C9674,8439 9670,8447 9671,8453C9671,8460 9678,8455 9687,8443C9695,8430 9708,8420 9715,8420ZM7160,8388C7150,8384 7139,8376 7135,8370C7130,8363 7123,8368 7114,8385C7095,8422 7104,8430 7143,8411C7171,8398 7174,8394 7160,8388ZM1301,8396C1310,8377 1308,8367 1294,8345C1279,8322 1275,8321 1267,8335C1262,8344 1261,8357 1264,8365C1266,8372 1262,8384 1254,8391C1242,8401 1242,8405 1252,8411C1274,8426 1290,8421 1301,8396ZM9510,8333C9510,8321 9506,8310 9500,8310C9495,8310 9490,8321 9490,8334C9490,8348 9486,8362 9480,8365C9475,8368 9470,8376 9470,8382C9470,8388 9479,8385 9490,8375C9501,8365 9510,8346 9510,8333ZM7133,8301C7131,8298 7124,8302 7118,8308C7111,8315 7095,8320 7081,8320C7053,8320 7063,8336 7095,8342C7113,8345 7143,8313 7133,8301ZM12213,5935C12210,5926 12205,5921 12203,5924C12200,5927 12201,5933 12205,5939C12214,5955 12220,5952 12213,5935ZM12350,4925C12343,4917 12334,4913 12329,4916C12316,4924 12328,4940 12347,4940C12360,4940 12360,4937 12350,4925ZM12295,4911C12292,4905 12274,4900 12257,4901L12225,4901L12260,4914C12298,4927 12305,4927 12295,4911ZM12360,4356C12360,4353 12356,4348 12350,4345C12345,4342 12340,4344 12340,4349C12340,4355 12345,4360 12350,4360C12356,4360 12360,4358 12360,4356ZM691,3087C685,3081 680,3068 680,3058C680,3036 673,3035 654,3054C636,3073 636,3080 655,3080C663,3080 675,3089 682,3100C689,3111 697,3115 699,3109C701,3103 697,3093 691,3087ZM669,3018C673,3025 681,3025 689,3021C700,3014 698,3010 682,3001C648,2983 620,2987 620,3010C620,3028 623,3029 641,3019C656,3011 665,3011 669,3018ZM12503,2414C12500,2406 12494,2400 12490,2400C12476,2400 12469,2417 12476,2434C12481,2446 12486,2448 12496,2440C12503,2433 12506,2422 12503,2414ZM12520,2336C12520,2333 12516,2328 12510,2325C12505,2322 12500,2324 12500,2329C12500,2335 12505,2340 12510,2340C12516,2340 12520,2338 12520,2336ZM602,1878C596,1872 587,1870 583,1874C579,1878 582,1885 590,1890C609,1902 617,1893 602,1878ZM1068,660C1041,623 1007,600 981,600C970,600 960,595 958,589C956,583 939,572 920,565C901,558 877,549 868,545C858,541 850,542 850,548C850,553 859,560 870,563C881,566 890,575 890,583C890,598 918,609 960,610C974,610 1004,627 1030,650C1084,697 1099,701 1068,660ZM10975,521C10978,516 10976,509 10970,505C10965,502 10960,506 10960,514C10960,532 10966,535 10975,521ZM5455,270C5452,265 5443,260 5437,260C5430,260 5431,264 5440,270C5459,282 5463,282 5455,270ZM4815,130C4787,118 4760,118 4760,130C4760,136 4777,140 4798,139C4828,139 4831,137 4815,130Z" style="fill-rule:nonzero;"/>
    </g>
    <g transform="matrix(0.1,0,0,-0.1,-36.8238,877.744)">
        <path d="M11251,8751C11244,8746 11242,8740 11246,8737C11256,8732 11300,8746 11300,8755C11300,8763 11266,8761 11251,8751Z" style="fill-rule:nonzero;"/>
    </g>
    <g transform="matrix(0.1,0,0,-0.1,-36.8238,877.744)">
        <path d="M11395,8740C11398,8735 11406,8730 11411,8730C11417,8730 11418,8735 11415,8740C11412,8746 11404,8750 11399,8750C11393,8750 11392,8746 11395,8740Z" style="fill-rule:nonzero;"/>
    </g>
    <g transform="matrix(0.1,0,0,-0.1,-36.8238,877.744)">
        <path d="M11260,8711C11244,8679 11297,8640 11315,8670C11319,8676 11326,8678 11331,8675C11336,8671 11340,8680 11340,8694C11340,8722 11325,8737 11317,8718C11313,8708 11311,8708 11311,8718C11310,8737 11272,8732 11260,8711Z" style="fill-rule:nonzero;"/>
    </g>
    <g transform="matrix(0.1,0,0,-0.1,-36.8238,877.744)">
        <path d="M11225,8670C11228,8665 11233,8660 11236,8660C11238,8660 11240,8665 11240,8670C11240,8676 11235,8680 11229,8680C11224,8680 11222,8676 11225,8670Z" style="fill-rule:nonzero;"/>
    </g>
    <g transform="matrix(0.1,0,0,-0.1,-36.8238,877.744)">
        <path d="M1685,8632C1629,8626 1591,8569 1624,8541C1635,8532 1639,8534 1643,8550C1646,8563 1660,8572 1679,8576C1739,8588 1744,8638 1685,8632Z" style="fill-rule:nonzero;"/>
    </g>
    <g transform="matrix(0.1,0,0,-0.1,-36.8238,877.744)">
        <path d="M2111,8604C2124,8590 2135,8571 2135,8562C2135,8551 2145,8544 2163,8542C2197,8538 2220,8555 2220,8585C2220,8603 2211,8609 2169,8618C2091,8636 2082,8634 2111,8604Z" style="fill-rule:nonzero;"/>
    </g>
    <g transform="matrix(0.1,0,0,-0.1,-36.8238,877.744)">
        <path d="M5695,8620C5698,8615 5703,8610 5706,8610C5708,8610 5710,8615 5710,8620C5710,8626 5705,8630 5699,8630C5694,8630 5692,8626 5695,8620Z" style="fill-rule:nonzero;"/>
    </g>
    <g transform="matrix(0.1,0,0,-0.1,-36.8238,877.744)">
        <path d="M2240,8595C2240,8575 2277,8534 2287,8543C2290,8547 2295,8563 2297,8580C2300,8607 2297,8610 2270,8610C2250,8610 2240,8605 2240,8595Z" style="fill-rule:nonzero;"/>
    </g>
    <g transform="matrix(0.1,0,0,-0.1,-36.8238,877.744)">
        <path d="M9457,8593C9446,8583 9449,8512 9460,8505C9466,8501 9479,8502 9488,8506C9497,8510 9514,8514 9525,8514C9568,8516 9529,8600 9485,8600C9473,8600 9460,8597 9457,8593Z" style="fill-rule:nonzero;"/>
    </g>
    <g transform="matrix(0.1,0,0,-0.1,-36.8238,877.744)">
        <path d="M7586,8558C7537,8548 7534,8544 7550,8525C7569,8502 7597,8507 7616,8535C7625,8549 7631,8562 7629,8564C7627,8565 7607,8563 7586,8558Z" style="fill-rule:nonzero;"/>
    </g>
    <g transform="matrix(0.1,0,0,-0.1,-36.8238,877.744)">
        <path d="M12507,8564C12499,8556 12508,8540 12521,8540C12526,8540 12530,8547 12530,8555C12530,8570 12518,8575 12507,8564Z" style="fill-rule:nonzero;"/>
    </g>
    <g transform="matrix(0.1,0,0,-0.1,-36.8238,877.744)">
        <path d="M1655,8550C1646,8535 1668,8510 1692,8510C1706,8510 1711,8516 1708,8533C1705,8557 1667,8569 1655,8550Z" style="fill-rule:nonzero;"/>
    </g>
    <g transform="matrix(0.1,0,0,-0.1,-36.8238,877.744)">
        <path d="M5711,8541C5696,8531 5703,8500 5720,8500C5735,8500 5745,8529 5734,8540C5729,8545 5719,8545 5711,8541Z" style="fill-rule:nonzero;"/>
    </g>
    <g transform="matrix(0.1,0,0,-0.1,-36.8238,877.744)">
        <path d="M9141,8533C9135,8523 9130,8521 9130,8528C9130,8534 9125,8540 9119,8540C9113,8540 9110,8526 9112,8508C9114,8481 9120,8474 9141,8472C9160,8470 9172,8476 9184,8495C9194,8510 9199,8528 9196,8536C9188,8556 9153,8554 9141,8533Z" style="fill-rule:nonzero;"/>
    </g>
    <g transform="matrix(0.1,0,0,-0.1,-36.8238,877.744)">
        <path d="M8877,8523C8850,8496 8905,8416 8953,8413C8969,8413 8980,8417 8980,8425C8980,8444 9007,8463 9015,8450C9025,8434 9040,8438 9040,8458C9039,8482 9016,8510 8997,8510C8988,8510 8978,8515 8975,8520C8970,8528 8964,8527 8954,8519C8943,8510 8936,8510 8928,8518C8915,8531 8887,8534 8877,8523Z" style="fill-rule:nonzero;"/>
    </g>
    <g transform="matrix(0.1,0,0,-0.1,-36.8238,877.744)">
        <path d="M1550,8506C1550,8498 1555,8488 1560,8485C1566,8482 1570,8488 1570,8499C1570,8511 1566,8520 1560,8520C1555,8520 1550,8514 1550,8506Z" style="fill-rule:nonzero;"/>
    </g>
    <g transform="matrix(0.1,0,0,-0.1,-36.8238,877.744)">
        <path d="M746,8494C739,8475 748,8457 761,8465C773,8473 773,8510 761,8510C756,8510 749,8503 746,8494Z" style="fill-rule:nonzero;"/>
    </g>
    <g transform="matrix(0.1,0,0,-0.1,-36.8238,877.744)">
        <path d="M900,8442C900,8428 911,8421 926,8427C934,8430 937,8436 934,8441C927,8452 900,8453 900,8442Z" style="fill-rule:nonzero;"/>
    </g>
    <g transform="matrix(0.1,0,0,-0.1,-36.8238,877.744)">
        <path d="M6235,8430C6238,8425 6243,8420 6246,8420C6248,8420 6250,8425 6250,8430C6250,8436 6245,8440 6239,8440C6234,8440 6232,8436 6235,8430Z" style="fill-rule:nonzero;"/>
    </g>
    <g transform="matrix(0.1,0,0,-0.1,-36.8238,877.744)">
        <path d="M8996,8404C8971,8380 8979,8345 9009,8345C9040,8345 9059,8373 9044,8397C9029,8421 9015,8423 8996,8404Z" style="fill-rule:nonzero;"/>
    </g>
    <g transform="matrix(0.1,0,0,-0.1,-36.8238,877.744)">
        <path d="M7580,8321C7580,8316 7585,8308 7590,8305C7596,8302 7600,8303 7600,8309C7600,8314 7596,8322 7590,8325C7585,8328 7580,8327 7580,8321Z" style="fill-rule:nonzero;"/>
    </g>
    <g transform="matrix(0.1,0,0,-0.1,-36.8238,877.744)">
        <path d="M12551,8276C12542,8265 12541,8256 12550,8241C12566,8211 12571,8215 12568,8255C12566,8295 12566,8295 12551,8276Z" style="fill-rule:nonzero;"/>
    </g>
    <g transform="matrix(0.1,0,0,-0.1,-36.8238,877.744)">
        <path d="M12374,7655C12371,7641 12363,7630 12357,7630C12350,7630 12352,7624 12360,7615C12371,7605 12384,7603 12405,7608C12440,7618 12450,7648 12424,7667C12397,7687 12381,7683 12374,7655Z" style="fill-rule:nonzero;"/>
    </g>
    <g transform="matrix(0.1,0,0,-0.1,-36.8238,877.744)">
        <path d="M12447,7472C12428,7452 12424,7420 12440,7420C12458,7420 12450,7401 12429,7395C12414,7390 12409,7381 12411,7362C12412,7347 12408,7323 12402,7308C12396,7293 12393,7274 12396,7266C12404,7245 12433,7242 12447,7260C12455,7270 12459,7271 12460,7263C12460,7248 12490,7245 12490,7259C12490,7264 12483,7275 12475,7284C12458,7301 12455,7320 12470,7320C12483,7320 12483,7376 12470,7400C12458,7422 12467,7450 12486,7450C12494,7450 12500,7459 12500,7470C12500,7496 12469,7497 12447,7472Z" style="fill-rule:nonzero;"/>
    </g>
    <g transform="matrix(0.1,0,0,-0.1,-36.8238,877.744)">
        <path d="M12280,6985C12280,6952 12296,6939 12313,6956C12319,6963 12294,7020 12285,7020C12282,7020 12280,7004 12280,6985Z" style="fill-rule:nonzero;"/>
    </g>
    <g transform="matrix(0.1,0,0,-0.1,-36.8238,877.744)">
        <path d="M12445,6960C12448,6955 12453,6950 12456,6950C12458,6950 12460,6955 12460,6960C12460,6966 12455,6970 12449,6970C12444,6970 12442,6966 12445,6960Z" style="fill-rule:nonzero;"/>
    </g>
    <g transform="matrix(0.1,0,0,-0.1,-36.8238,877.744)">
        <path d="M12383,6849C12374,6840 12374,6833 12381,6824C12394,6809 12443,6827 12437,6844C12432,6860 12397,6863 12383,6849Z" style="fill-rule:nonzero;"/>
    </g>
    <g transform="matrix(0.1,0,0,-0.1,-36.8238,877.744)">
        <path d="M12417,6813C12403,6800 12411,6790 12435,6790C12451,6790 12460,6796 12460,6805C12460,6820 12429,6826 12417,6813Z" style="fill-rule:nonzero;"/>
    </g>
    <g transform="matrix(0.1,0,0,-0.1,-36.8238,877.744)">
        <path d="M12420,6761C12420,6749 12449,6726 12456,6733C12467,6743 12451,6770 12435,6770C12427,6770 12420,6766 12420,6761Z" style="fill-rule:nonzero;"/>
    </g>
    <g transform="matrix(0.1,0,0,-0.1,-36.8238,877.744)">
        <path d="M12204,6565C12197,6547 12207,6530 12226,6530C12234,6530 12240,6540 12240,6555C12240,6582 12213,6590 12204,6565Z" style="fill-rule:nonzero;"/>
    </g>
    <g transform="matrix(0.1,0,0,-0.1,-36.8238,877.744)">
        <path d="M12232,6508C12238,6490 12260,6487 12260,6504C12260,6513 12253,6520 12244,6520C12235,6520 12230,6515 12232,6508Z" style="fill-rule:nonzero;"/>
    </g>
    <g transform="matrix(0.1,0,0,-0.1,-36.8238,877.744)">
        <path d="M12186,6449C12173,6423 12172,6410 12181,6374C12187,6349 12190,6316 12187,6300C12182,6277 12185,6268 12200,6260C12219,6250 12250,6256 12250,6270C12250,6274 12241,6289 12230,6303C12194,6348 12210,6369 12281,6370C12328,6370 12350,6422 12308,6435C12293,6440 12282,6436 12271,6421C12250,6394 12218,6402 12221,6434C12225,6490 12210,6496 12186,6449Z" style="fill-rule:nonzero;"/>
    </g>
    <g transform="matrix(0.1,0,0,-0.1,-36.8238,877.744)">
        <path d="M12101,6452C12086,6425 12111,6402 12130,6425C12141,6438 12141,6444 12128,6457C12113,6471 12111,6470 12101,6452Z" style="fill-rule:nonzero;"/>
    </g>
    <g transform="matrix(0.1,0,0,-0.1,-36.8238,877.744)">
        <path d="M12134,6402C12140,6393 12105,6360 12090,6360C12075,6360 12078,6323 12095,6307C12118,6284 12164,6300 12168,6331C12172,6362 12154,6410 12140,6410C12134,6410 12131,6406 12134,6402Z" style="fill-rule:nonzero;"/>
    </g>
    <g transform="matrix(0.1,0,0,-0.1,-36.8238,877.744)">
        <path d="M12272,6321C12254,6310 12261,6276 12281,6272C12298,6269 12310,6295 12303,6318C12298,6332 12290,6333 12272,6321Z" style="fill-rule:nonzero;"/>
    </g>
    <g transform="matrix(0.1,0,0,-0.1,-36.8238,877.744)">
        <path d="M12197,6189C12179,6179 12179,6177 12201,6154C12239,6113 12258,6124 12244,6178C12237,6202 12225,6205 12197,6189Z" style="fill-rule:nonzero;"/>
    </g>
    <g transform="matrix(0.1,0,0,-0.1,-36.8238,877.744)">
        <path d="M418,6093C389,6085 389,6060 417,6032C436,6013 445,6009 448,6019C451,6029 457,6027 470,6010C481,5995 493,5989 504,5993C525,6001 525,6039 503,6048C493,6052 485,6064 485,6075C485,6095 455,6104 418,6093Z" style="fill-rule:nonzero;"/>
    </g>
    <g transform="matrix(0.1,0,0,-0.1,-36.8238,877.744)">
        <path d="M12260,5981C12260,5975 12265,5968 12270,5965C12276,5962 12280,5966 12280,5974C12280,5983 12276,5990 12270,5990C12265,5990 12260,5986 12260,5981Z" style="fill-rule:nonzero;"/>
    </g>
    <g transform="matrix(0.1,0,0,-0.1,-36.8238,877.744)">
        <path d="M12310,5970C12310,5965 12315,5960 12321,5960C12326,5960 12328,5965 12325,5970C12322,5976 12317,5980 12314,5980C12312,5980 12310,5976 12310,5970Z" style="fill-rule:nonzero;"/>
    </g>
    <g transform="matrix(0.1,0,0,-0.1,-36.8238,877.744)">
        <path d="M12330,5900C12330,5889 12334,5880 12339,5880C12344,5880 12346,5889 12343,5900C12340,5911 12336,5920 12334,5920C12332,5920 12330,5911 12330,5900Z" style="fill-rule:nonzero;"/>
    </g>
    <g transform="matrix(0.1,0,0,-0.1,-36.8238,877.744)">
        <path d="M400,5760C400,5749 407,5740 415,5740C432,5740 433,5742 424,5764C415,5787 400,5784 400,5760Z" style="fill-rule:nonzero;"/>
    </g>
    <g transform="matrix(0.1,0,0,-0.1,-36.8238,877.744)">
        <path d="M12410,5123C12410,5111 12419,5096 12430,5090C12456,5076 12456,5091 12430,5121L12411,5145L12410,5123Z" style="fill-rule:nonzero;"/>
    </g>
    <g transform="matrix(0.1,0,0,-0.1,-36.8238,877.744)">
        <path d="M454,5046C444,5019 455,4995 479,4992C516,4986 523,5003 497,5033C471,5064 462,5066 454,5046Z" style="fill-rule:nonzero;"/>
    </g>
    <g transform="matrix(0.1,0,0,-0.1,-36.8238,877.744)">
        <path d="M460,4905C460,4897 464,4890 470,4890C475,4890 477,4897 474,4905C470,4913 466,4920 464,4920C462,4920 460,4913 460,4905Z" style="fill-rule:nonzero;"/>
    </g>
    <g transform="matrix(0.1,0,0,-0.1,-36.8238,877.744)">
        <path d="M12423,4583C12404,4576 12408,4545 12430,4525C12456,4502 12473,4516 12468,4556C12465,4584 12448,4594 12423,4583Z" style="fill-rule:nonzero;"/>
    </g>
    <g transform="matrix(0.1,0,0,-0.1,-36.8238,877.744)">
        <path d="M12470,4475C12470,4467 12474,4460 12480,4460C12485,4460 12487,4467 12484,4475C12480,4483 12476,4490 12474,4490C12472,4490 12470,4483 12470,4475Z" style="fill-rule:nonzero;"/>
    </g>
    <g transform="matrix(0.1,0,0,-0.1,-36.8238,877.744)">
        <path d="M12453,4398C12426,4385 12425,4377 12445,4360C12466,4342 12490,4355 12490,4385C12490,4412 12486,4414 12453,4398Z" style="fill-rule:nonzero;"/>
    </g>
    <g transform="matrix(0.1,0,0,-0.1,-36.8238,877.744)">
        <path d="M566,3841C525,3799 536,3776 593,3785C659,3795 670,3800 670,3819C670,3834 624,3870 603,3870C598,3870 581,3857 566,3841Z" style="fill-rule:nonzero;"/>
    </g>
    <g transform="matrix(0.1,0,0,-0.1,-36.8238,877.744)">
        <path d="M12525,3860C12518,3848 12527,3830 12541,3830C12553,3830 12553,3857 12541,3865C12536,3868 12529,3866 12525,3860Z" style="fill-rule:nonzero;"/>
    </g>
    <g transform="matrix(0.1,0,0,-0.1,-36.8238,877.744)">
        <path d="M572,3744C554,3732 552,3725 561,3708C568,3696 578,3690 590,3693C602,3696 610,3691 613,3679C620,3651 658,3655 671,3684C678,3698 680,3720 676,3734C669,3763 643,3769 633,3745C628,3731 626,3731 611,3744C596,3758 592,3758 572,3744Z" style="fill-rule:nonzero;"/>
    </g>
    <g transform="matrix(0.1,0,0,-0.1,-36.8238,877.744)">
        <path d="M12527,3730C12517,3713 12511,3693 12513,3685C12516,3678 12516,3669 12513,3666C12509,3663 12505,3648 12504,3633C12502,3618 12494,3602 12485,3597C12476,3592 12465,3577 12459,3563C12442,3517 12505,3475 12529,3517C12538,3534 12540,3533 12559,3516L12580,3497L12580,3552C12580,3582 12574,3629 12566,3656C12558,3683 12550,3718 12548,3733L12545,3762L12527,3730Z" style="fill-rule:nonzero;"/>
    </g>
    <g transform="matrix(0.1,0,0,-0.1,-36.8238,877.744)">
        <path d="M12410,3721C12410,3694 12436,3677 12465,3684C12497,3692 12497,3718 12464,3730C12426,3745 12410,3742 12410,3721Z" style="fill-rule:nonzero;"/>
    </g>
    <g transform="matrix(0.1,0,0,-0.1,-36.8238,877.744)">
        <path d="M570,3166C570,3157 575,3150 580,3150C586,3150 590,3154 590,3159C590,3165 586,3172 580,3175C575,3178 570,3174 570,3166Z" style="fill-rule:nonzero;"/>
    </g>
    <g transform="matrix(0.1,0,0,-0.1,-36.8238,877.744)">
        <path d="M620,2828C620,2812 639,2790 653,2790C657,2790 660,2800 658,2812C655,2837 620,2851 620,2828Z" style="fill-rule:nonzero;"/>
    </g>
    <g transform="matrix(0.1,0,0,-0.1,-36.8238,877.744)">
        <path d="M502,2780C502,2766 504,2761 507,2768C509,2774 509,2786 507,2793C504,2799 502,2794 502,2780Z" style="fill-rule:nonzero;"/>
    </g>
    <g transform="matrix(0.1,0,0,-0.1,-36.8238,877.744)">
        <path d="M500,2710C500,2705 505,2700 511,2700C516,2700 518,2705 515,2710C512,2716 507,2720 504,2720C502,2720 500,2716 500,2710Z" style="fill-rule:nonzero;"/>
    </g>
    <g transform="matrix(0.1,0,0,-0.1,-36.8238,877.744)">
        <path d="M555,2710C558,2705 563,2700 566,2700C568,2700 570,2705 570,2710C570,2716 565,2720 559,2720C554,2720 552,2716 555,2710Z" style="fill-rule:nonzero;"/>
    </g>
    <g transform="matrix(0.1,0,0,-0.1,-36.8238,877.744)">
        <path d="M458,2535C448,2525 459,2447 471,2439C486,2430 510,2439 510,2454C510,2505 478,2555 458,2535Z" style="fill-rule:nonzero;"/>
    </g>
    <g transform="matrix(0.1,0,0,-0.1,-36.8238,877.744)">
        <path d="M12543,2163C12526,2157 12527,2138 12543,2116C12552,2103 12563,2100 12583,2105C12614,2113 12618,2130 12592,2153C12573,2170 12564,2172 12543,2163Z" style="fill-rule:nonzero;"/>
    </g>
    <g transform="matrix(0.1,0,0,-0.1,-36.8238,877.744)">
        <path d="M12562,2081C12564,2074 12569,2069 12573,2069C12585,2070 12582,2084 12570,2089C12563,2091 12559,2087 12562,2081Z" style="fill-rule:nonzero;"/>
    </g>
    <g transform="matrix(0.1,0,0,-0.1,-36.8238,877.744)">
        <path d="M12571,1780C12572,1772 12576,1754 12580,1740L12588,1715L12589,1740C12589,1754 12585,1772 12580,1780C12571,1793 12570,1793 12571,1780Z" style="fill-rule:nonzero;"/>
    </g>
    <g transform="matrix(0.1,0,0,-0.1,-36.8238,877.744)">
        <path d="M12580,1006C12580,998 12585,988 12590,985C12596,982 12600,988 12600,999C12600,1011 12596,1020 12590,1020C12585,1020 12580,1014 12580,1006Z" style="fill-rule:nonzero;"/>
    </g>
    <g transform="matrix(0.1,0,0,-0.1,-36.8238,877.744)">
        <path d="M12550,996C12550,987 12555,980 12560,980C12566,980 12570,984 12570,989C12570,995 12566,1002 12560,1005C12555,1008 12550,1004 12550,996Z" style="fill-rule:nonzero;"/>
    </g>
    <g transform="matrix(0.1,0,0,-0.1,-36.8238,877.744)">
        <path d="M627,813C616,803 619,765 631,753C642,742 690,748 690,761C690,765 686,780 680,794C671,819 642,829 627,813Z" style="fill-rule:nonzero;"/>
    </g>
    <g transform="matrix(0.1,0,0,-0.1,-36.8238,877.744)">
        <path d="M570,800C562,795 558,790 560,788C563,786 578,774 594,760L622,735L615,760C605,796 588,811 570,800Z" style="fill-rule:nonzero;"/>
    </g>
    <g transform="matrix(0.1,0,0,-0.1,-36.8238,877.744)">
        <path d="M8425,780C8422,774 8426,767 8435,764C8454,756 8465,764 8455,779C8447,793 8433,793 8425,780Z" style="fill-rule:nonzero;"/>
    </g>
    <g transform="matrix(0.1,0,0,-0.1,-36.8238,877.744)">
        <path d="M543,741C522,708 565,684 590,715C600,727 600,733 590,745C573,765 557,764 543,741Z" style="fill-rule:nonzero;"/>
    </g>
    <g transform="matrix(0.1,0,0,-0.1,-36.8238,877.744)">
        <path d="M10518,733C10508,730 10500,725 10500,721C10500,716 10489,715 10475,718C10453,722 10450,719 10450,692C10450,657 10495,617 10533,620C10578,624 10590,620 10583,604C10576,584 10617,540 10644,540C10685,541 10718,588 10690,605C10685,608 10680,620 10680,630C10680,652 10652,683 10639,675C10634,671 10630,678 10630,690C10630,701 10624,712 10618,714C10611,716 10596,721 10585,726C10557,736 10538,738 10518,733Z" style="fill-rule:nonzero;"/>
    </g>
    <g transform="matrix(0.1,0,0,-0.1,-36.8238,877.744)">
        <path d="M500,696C500,667 510,658 530,670C541,677 542,684 534,697C517,724 500,724 500,696Z" style="fill-rule:nonzero;"/>
    </g>
    <g transform="matrix(0.1,0,0,-0.1,-36.8238,877.744)">
        <path d="M8402,684C8403,675 8411,665 8418,662C8427,659 8431,664 8428,676C8427,685 8419,695 8412,698C8403,701 8399,696 8402,684Z" style="fill-rule:nonzero;"/>
    </g>
    <g transform="matrix(0.1,0,0,-0.1,-36.8238,877.744)">
        <path d="M10705,680C10708,675 10715,670 10721,670C10726,670 10730,675 10730,680C10730,686 10723,690 10714,690C10706,690 10702,686 10705,680Z" style="fill-rule:nonzero;"/>
    </g>
    <g transform="matrix(0.1,0,0,-0.1,-36.8238,877.744)">
        <path d="M500,631C493,618 493,609 500,605C515,596 530,609 530,631C530,656 514,656 500,631Z" style="fill-rule:nonzero;"/>
    </g>
    <g transform="matrix(0.1,0,0,-0.1,-36.8238,877.744)">
        <path d="M7690,578C7690,569 7695,558 7701,555C7718,544 7721,555 7705,576C7692,593 7691,593 7690,578Z" style="fill-rule:nonzero;"/>
    </g>
    <g transform="matrix(0.1,0,0,-0.1,-36.8238,877.744)">
        <path d="M10857,573C10868,542 10900,529 10900,555C10900,563 10891,574 10881,580C10854,594 10850,593 10857,573Z" style="fill-rule:nonzero;"/>
    </g>
    <g transform="matrix(0.1,0,0,-0.1,-36.8238,877.744)">
        <path d="M10326,565C10330,557 10339,550 10347,550C10360,550 10360,553 10350,565C10343,573 10334,580 10329,580C10324,580 10323,573 10326,565Z" style="fill-rule:nonzero;"/>
    </g>
    <g transform="matrix(0.1,0,0,-0.1,-36.8238,877.744)">
        <path d="M10285,560C10281,554 10283,544 10288,537C10293,530 10300,512 10304,497C10308,478 10316,470 10325,473C10332,476 10344,472 10351,464C10372,438 10421,417 10432,428C10446,442 10434,473 10419,464C10411,459 10409,465 10413,482C10422,516 10397,540 10381,513C10372,497 10370,497 10358,510C10325,548 10292,571 10285,560Z" style="fill-rule:nonzero;"/>
    </g>
    <g transform="matrix(0.1,0,0,-0.1,-36.8238,877.744)">
        <path d="M1152,538C1134,514 1128,479 1140,465C1147,457 1149,439 1146,426C1141,406 1145,398 1162,389C1187,376 1219,341 1220,325C1220,320 1210,327 1197,341C1168,376 1104,388 1095,360C1087,336 1106,300 1126,300C1138,300 1139,296 1129,279C1120,261 1121,254 1136,240C1163,214 1200,211 1214,233C1223,247 1221,253 1208,261C1179,277 1187,288 1225,285C1265,281 1272,300 1243,332C1234,343 1232,350 1238,350C1254,350 1253,375 1237,389C1227,396 1220,396 1213,389C1196,372 1187,396 1201,421C1209,437 1209,448 1199,466C1192,479 1190,493 1193,497C1197,500 1200,498 1200,492C1200,485 1205,480 1210,480C1224,480 1223,523 1208,538C1192,554 1165,553 1152,538Z" style="fill-rule:nonzero;"/>
    </g>
    <g transform="matrix(0.1,0,0,-0.1,-36.8238,877.744)">
        <path d="M7328,526C7323,503 7335,480 7351,480C7363,480 7369,524 7358,537C7342,556 7333,553 7328,526Z" style="fill-rule:nonzero;"/>
    </g>
    <g transform="matrix(0.1,0,0,-0.1,-36.8238,877.744)">
        <path d="M8885,537C8881,527 8882,514 8889,507C8905,491 8915,507 8903,532C8893,553 8892,554 8885,537Z" style="fill-rule:nonzero;"/>
    </g>
    <g transform="matrix(0.1,0,0,-0.1,-36.8238,877.744)">
        <path d="M10492,507C10495,482 10492,470 10484,470C10469,470 10447,409 10458,398C10463,393 10481,386 10498,380C10527,372 10531,374 10545,400C10553,416 10560,439 10560,450C10560,463 10568,474 10580,477C10620,488 10599,522 10551,525C10537,526 10517,530 10506,535C10489,542 10488,539 10492,507Z" style="fill-rule:nonzero;"/>
    </g>
    <g transform="matrix(0.1,0,0,-0.1,-36.8238,877.744)">
        <path d="M10865,530C10861,524 10862,516 10865,510C10874,495 10900,498 10900,514C10900,531 10873,543 10865,530Z" style="fill-rule:nonzero;"/>
    </g>
    <g transform="matrix(0.1,0,0,-0.1,-36.8238,877.744)">
        <path d="M1646,504C1627,486 1627,484 1640,459C1646,449 1660,440 1671,440C1682,440 1704,433 1720,425C1749,410 1750,411 1756,434C1765,470 1752,500 1723,511C1688,524 1664,522 1646,504Z" style="fill-rule:nonzero;"/>
    </g>
    <g transform="matrix(0.1,0,0,-0.1,-36.8238,877.744)">
        <path d="M7392,498C7395,491 7409,483 7425,482C7450,479 7452,480 7441,494C7425,513 7386,516 7392,498Z" style="fill-rule:nonzero;"/>
    </g>
    <g transform="matrix(0.1,0,0,-0.1,-36.8238,877.744)">
        <path d="M9270,470C9270,465 9275,460 9281,460C9286,460 9288,465 9285,470C9282,476 9277,480 9274,480C9272,480 9270,476 9270,470Z" style="fill-rule:nonzero;"/>
    </g>
    <g transform="matrix(0.1,0,0,-0.1,-36.8238,877.744)">
        <path d="M12410,465C12410,449 12437,433 12447,444C12454,451 12431,480 12419,480C12414,480 12410,473 12410,465Z" style="fill-rule:nonzero;"/>
    </g>
    <g transform="matrix(0.1,0,0,-0.1,-36.8238,877.744)">
        <path d="M446,461C442,454 441,446 444,443C453,434 463,447 458,461C454,472 452,472 446,461Z" style="fill-rule:nonzero;"/>
    </g>
    <g transform="matrix(0.1,0,0,-0.1,-36.8238,877.744)">
        <path d="M8826,454C8807,436 8809,415 8830,415C8850,415 8867,447 8854,460C8846,468 8838,467 8826,454Z" style="fill-rule:nonzero;"/>
    </g>
    <g transform="matrix(0.1,0,0,-0.1,-36.8238,877.744)">
        <path d="M487,453C480,442 498,400 509,400C530,400 550,413 550,426C550,434 543,440 535,440C527,440 520,445 520,450C520,462 493,464 487,453Z" style="fill-rule:nonzero;"/>
    </g>
    <g transform="matrix(0.1,0,0,-0.1,-36.8238,877.744)">
        <path d="M1524,429C1507,410 1507,406 1521,382C1531,363 1545,354 1569,352C1597,349 1602,351 1596,365C1592,378 1594,381 1605,376C1625,369 1650,379 1650,395C1650,402 1639,408 1624,408C1610,408 1589,417 1576,429C1549,455 1548,455 1524,429Z" style="fill-rule:nonzero;"/>
    </g>
    <g transform="matrix(0.1,0,0,-0.1,-36.8238,877.744)">
        <path d="M9874,434C9877,426 9880,416 9880,414C9880,412 9885,410 9890,410C9906,410 9901,437 9884,444C9872,449 9869,446 9874,434Z" style="fill-rule:nonzero;"/>
    </g>
    <g transform="matrix(0.1,0,0,-0.1,-36.8238,877.744)">
        <path d="M8880,422C8880,409 8919,376 8926,383C8935,392 8910,430 8895,430C8887,430 8880,426 8880,422Z" style="fill-rule:nonzero;"/>
    </g>
    <g transform="matrix(0.1,0,0,-0.1,-36.8238,877.744)">
        <path d="M10565,420C10561,414 10562,404 10568,398C10574,392 10580,392 10585,400C10589,406 10588,416 10582,422C10576,428 10570,428 10565,420Z" style="fill-rule:nonzero;"/>
    </g>
    <g transform="matrix(0.1,0,0,-0.1,-36.8238,877.744)">
        <path d="M11450,420C11450,415 11456,407 11463,403C11471,399 11480,387 11483,377C11487,367 11494,362 11500,365C11515,374 11512,400 11496,400C11488,400 11480,407 11476,415C11470,431 11450,436 11450,420Z" style="fill-rule:nonzero;"/>
    </g>
    <g transform="matrix(0.1,0,0,-0.1,-36.8238,877.744)">
        <path d="M2286,413C2274,401 2280,380 2295,380C2303,380 2310,386 2310,394C2310,411 2296,422 2286,413Z" style="fill-rule:nonzero;"/>
    </g>
    <g transform="matrix(0.1,0,0,-0.1,-36.8238,877.744)">
        <path d="M11425,410C11428,405 11433,400 11436,400C11438,400 11440,405 11440,410C11440,416 11435,420 11429,420C11424,420 11422,416 11425,410Z" style="fill-rule:nonzero;"/>
    </g>
    <g transform="matrix(0.1,0,0,-0.1,-36.8238,877.744)">
        <path d="M1259,381C1272,364 1286,352 1291,356C1305,364 1277,404 1255,409C1239,412 1240,408 1259,381Z" style="fill-rule:nonzero;"/>
    </g>
    <g transform="matrix(0.1,0,0,-0.1,-36.8238,877.744)">
        <path d="M8852,398C8858,380 8880,377 8880,394C8880,403 8873,410 8864,410C8855,410 8850,405 8852,398Z" style="fill-rule:nonzero;"/>
    </g>
    <g transform="matrix(0.1,0,0,-0.1,-36.8238,877.744)">
        <path d="M9544,399C9533,381 9553,373 9598,378C9633,381 9639,385 9629,396C9615,413 9554,415 9544,399Z" style="fill-rule:nonzero;"/>
    </g>
    <g transform="matrix(0.1,0,0,-0.1,-36.8238,877.744)">
        <path d="M11400,405C11400,390 11418,365 11424,371C11427,374 11423,385 11415,396C11407,406 11401,411 11400,405Z" style="fill-rule:nonzero;"/>
    </g>
    <g transform="matrix(0.1,0,0,-0.1,-36.8238,877.744)">
        <path d="M12272,397C12264,388 12264,380 12272,370C12280,358 12281,358 12276,373C12267,400 12295,393 12308,365C12314,351 12324,340 12330,340C12349,340 12340,379 12318,394C12291,413 12285,414 12272,397Z" style="fill-rule:nonzero;"/>
    </g>
    <g transform="matrix(0.1,0,0,-0.1,-36.8238,877.744)">
        <path d="M9010,390C9010,385 9015,380 9021,380C9026,380 9028,385 9025,390C9022,396 9017,400 9014,400C9012,400 9010,396 9010,390Z" style="fill-rule:nonzero;"/>
    </g>
    <g transform="matrix(0.1,0,0,-0.1,-36.8238,877.744)">
        <path d="M12362,389C12364,382 12372,374 12379,372C12387,369 12391,373 12388,381C12386,388 12378,396 12371,398C12363,401 12359,397 12362,389Z" style="fill-rule:nonzero;"/>
    </g>
    <g transform="matrix(0.1,0,0,-0.1,-36.8238,877.744)">
        <path d="M10920,375C10920,365 10910,360 10891,360C10874,360 10859,356 10856,351C10850,341 10926,319 10935,328C10944,338 10940,390 10930,390C10925,390 10920,383 10920,375Z" style="fill-rule:nonzero;"/>
    </g>
    <g transform="matrix(0.1,0,0,-0.1,-36.8238,877.744)">
        <path d="M1746,345C1750,337 1756,330 1761,330C1766,330 1770,337 1770,345C1770,353 1763,360 1755,360C1746,360 1743,354 1746,345Z" style="fill-rule:nonzero;"/>
    </g>
    <g transform="matrix(0.1,0,0,-0.1,-36.8238,877.744)">
        <path d="M11610,340C11610,335 11615,330 11621,330C11626,330 11628,335 11625,340C11622,346 11617,350 11614,350C11612,350 11610,346 11610,340Z" style="fill-rule:nonzero;"/>
    </g>
    <g transform="matrix(0.1,0,0,-0.1,-36.8238,877.744)">
        <path d="M5976,323C5972,314 5976,300 5984,291C5998,278 6000,278 6006,293C6013,313 6005,340 5991,340C5986,340 5979,332 5976,323Z" style="fill-rule:nonzero;"/>
    </g>
    <g transform="matrix(0.1,0,0,-0.1,-36.8238,877.744)">
        <path d="M2860,301C2860,296 2869,290 2881,287C2897,283 2899,284 2889,296C2876,312 2860,315 2860,301Z" style="fill-rule:nonzero;"/>
    </g>
    <g transform="matrix(0.1,0,0,-0.1,-36.8238,877.744)">
        <path d="M510,290C510,285 517,280 525,280C533,280 540,285 540,290C540,296 533,300 525,300C517,300 510,296 510,290Z" style="fill-rule:nonzero;"/>
    </g>
    <g transform="matrix(0.1,0,0,-0.1,-36.8238,877.744)">
        <path d="M1090,281C1090,275 1095,268 1100,265C1106,262 1110,266 1110,274C1110,283 1106,290 1100,290C1095,290 1090,286 1090,281Z" style="fill-rule:nonzero;"/>
    </g>
    <g transform="matrix(0.1,0,0,-0.1,-36.8238,877.744)">
        <path d="M2753,274C2745,254 2761,226 2784,222C2801,218 2806,244 2794,274C2786,295 2761,295 2753,274Z" style="fill-rule:nonzero;"/>
    </g>
    <g transform="matrix(0.1,0,0,-0.1,-36.8238,877.744)">
        <path d="M2710,260C2701,243 2704,236 2726,215C2741,201 2759,190 2767,190C2782,190 2781,193 2744,248C2722,280 2721,280 2710,260Z" style="fill-rule:nonzero;"/>
    </g>
    <g transform="matrix(0.1,0,0,-0.1,-36.8238,877.744)">
        <path d="M4210,106C4210,97 4217,90 4226,90C4235,90 4240,95 4238,102C4232,120 4210,123 4210,106Z" style="fill-rule:nonzero;"/>
    </g>
    <g transform="matrix(0.1,0,0,-0.1,-36.8238,877.744)">
        <path d="M3363,93C3343,86 3348,74 3375,62C3400,50 3405,56 3394,84C3388,101 3383,102 3363,93Z" style="fill-rule:nonzero;"/>
    </g>
    <g transform="matrix(0.1,0,0,-0.1,-36.8238,877.744)">
        <path d="M4044,85C4035,62 4058,40 4070,60C4075,68 4078,79 4077,84C4071,101 4050,102 4044,85Z" style="fill-rule:nonzero;"/>
    </g>
    <g transform="matrix(0.1,0,0,-0.1,-36.8238,877.744)">
        <path d="M4025,10C4028,5 4033,0 4036,0C4038,0 4040,5 4040,10C4040,16 4035,20 4029,20C4024,20 4022,16 4025,10Z" style="fill-rule:nonzero;"/>
    </g>
</svg>
